<?xml version="1.0" encoding="UTF-8"?>
<svg height="16px" viewBox="0 0 16 16" width="16px" xmlns="http://www.w3.org/2000/svg" xmlns:xlink="http://www.w3.org/1999/xlink">
    <filter id="a" height="100%" width="100%" x="0%" y="0%">
        <feColorMatrix in="SourceGraphic" type="matrix" values="0 0 0 0 1 0 0 0 0 1 0 0 0 0 1 0 0 0 1 0"/>
    </filter>
    <mask id="b">
        <g filter="url(#a)">
            <rect fill-opacity="0.2" height="16" width="16"/>
        </g>
    </mask>
    <clipPath id="c">
        <rect height="152" width="192"/>
    </clipPath>
    <mask id="d">
        <g filter="url(#a)">
            <rect fill-opacity="0.2" height="16" width="16"/>
        </g>
    </mask>
    <clipPath id="e">
        <rect height="152" width="192"/>
    </clipPath>
    <mask id="f">
        <g filter="url(#a)">
            <rect fill-opacity="0.2" height="16" width="16"/>
        </g>
    </mask>
    <clipPath id="g">
        <rect height="152" width="192"/>
    </clipPath>
    <mask id="h">
        <g filter="url(#a)">
            <rect fill-opacity="0.2" height="16" width="16"/>
        </g>
    </mask>
    <clipPath id="i">
        <rect height="152" width="192"/>
    </clipPath>
    <mask id="j">
        <g filter="url(#a)">
            <rect fill-opacity="0.2" height="16" width="16"/>
        </g>
    </mask>
    <clipPath id="k">
        <rect height="152" width="192"/>
    </clipPath>
    <mask id="l">
        <g filter="url(#a)">
            <rect fill-opacity="0.2" height="16" width="16"/>
        </g>
    </mask>
    <clipPath id="m">
        <rect height="152" width="192"/>
    </clipPath>
    <mask id="n">
        <g filter="url(#a)">
            <rect fill-opacity="0.2" height="16" width="16"/>
        </g>
    </mask>
    <clipPath id="o">
        <rect height="152" width="192"/>
    </clipPath>
    <mask id="p">
        <g filter="url(#a)">
            <rect fill-opacity="0.05" height="16" width="16"/>
        </g>
    </mask>
    <clipPath id="q">
        <rect height="152" width="192"/>
    </clipPath>
    <g clip-path="url(#c)" mask="url(#b)" transform="matrix(1 0 0 1 -168 -16)">
        <path d="m 94.214844 39.390625 l -3.378906 7.25 l -1.8125 -0.84375 l 3.378906 -7.25 z m 0 0"/>
    </g>
    <g clip-path="url(#e)" mask="url(#d)" transform="matrix(1 0 0 1 -168 -16)">
        <path d="m 97.839844 41.082031 l -3.378906 7.25 l -1.8125 -0.84375 l 3.378906 -7.253906 z m 0 0"/>
    </g>
    <g clip-path="url(#g)" mask="url(#f)" transform="matrix(1 0 0 1 -168 -16)">
        <path d="m 101.464844 42.773438 l -3.378906 7.25 l -1.8125 -0.847657 l 3.378906 -7.25 z m 0 0"/>
    </g>
    <g clip-path="url(#i)" mask="url(#h)" transform="matrix(1 0 0 1 -168 -16)">
        <path d="m 68 38.128906 h 8 v 2 h -8 z m 0 0"/>
    </g>
    <g clip-path="url(#k)" mask="url(#j)" transform="matrix(1 0 0 1 -168 -16)">
        <path d="m 70 28.128906 v 8 h -2 v -8 z m 0 0"/>
    </g>
    <g clip-path="url(#m)" mask="url(#l)" transform="matrix(1 0 0 1 -168 -16)">
        <path d="m 74 28.128906 v 8 h -2 v -8 z m 0 0"/>
    </g>
    <g clip-path="url(#o)" mask="url(#n)" transform="matrix(1 0 0 1 -168 -16)">
        <path d="m 78 28.128906 v 8 h -2 v -8 z m 0 0"/>
    </g>
    <g clip-path="url(#q)" mask="url(#p)" transform="matrix(1 0 0 1 -168 -16)">
        <path d="m 73.375 58.15625 c -3.605469 -0.136719 -7.210938 0.265625 -10.691406 1.199219 c -15.863282 4.273437 -26.820313 18.738281 -26.636719 35.164062 c 0.699219 -15.679687 11.476563 -29.09375 26.636719 -33.164062 c 19.203125 -5.144531 38.945312 6.253906 44.089844 25.457031 c 0.765624 2.914062 1.160156 5.914062 1.179687 8.929688 c 0.167969 -3.683594 -0.230469 -7.367188 -1.179687 -10.929688 c -4.085938 -15.246094 -17.625 -26.054688 -33.398438 -26.65625 z m 0 0"/>
    </g>
    <g fill="#bebebe">
        <path d="m 8 1 c -4.128906 0 -7.5 3.371094 -7.5 7.5 s 3.371094 7.5 7.5 7.5 s 7.5 -3.371094 7.5 -7.5 s -3.371094 -7.5 -7.5 -7.5 z m 0 2.144531 c 2.972656 0 5.355469 2.382813 5.355469 5.355469 s -2.382813 5.359375 -5.355469 5.359375 s -5.359375 -2.386719 -5.359375 -5.359375 s 2.386719 -5.355469 5.359375 -5.355469 z m 0 0"/>
        <path d="m 8 4.03125 c -0.550781 0 -1 0.449219 -1 1 v 2.203125 c -0.617188 0.355469 -0.996094 1.015625 -1 1.726563 c 0.003906 0.710937 0.382812 1.371093 1 1.726562 v 0.273438 c 0 0.550781 0.449219 1 1 1 s 1 -0.449219 1 -1 v -0.273438 c 0.617188 -0.355469 0.996094 -1.015625 1 -1.726562 c 0 -0.714844 -0.382812 -1.375 -1 -1.730469 v -2.199219 c 0 -0.550781 -0.449219 -1 -1 -1 z m 0 3.929688 c 0.550781 0 1 0.449218 1 1 c 0 0.550781 -0.449219 1 -1 1 s -1 -0.449219 -1 -1 c 0 -0.550782 0.449219 -1 1 -1 z m 0 0"/>
        <path d="m 7 0 h 2 c 0.550781 0 1 0.449219 1 1 s -0.449219 1 -1 1 h -2 c -0.550781 0 -1 -0.449219 -1 -1 s 0.449219 -1 1 -1 z m 0 0"/>
        <path d="m 13.65625 1.914062 l 1.414062 1.414063 c 0.390626 0.390625 0.390626 1.023437 0 1.414063 l -0.550781 0.550781 c -0.390625 0.390625 -1.023437 0.390625 -1.414062 0 l -1.414063 -1.414063 c -0.390625 -0.390625 -0.390625 -1.023437 0 -1.414062 l 0.550782 -0.550782 c 0.390624 -0.390624 1.023437 -0.390624 1.414062 0 z m 0 0"/>
    </g>
</svg>
