<?xml version="1.0" encoding="UTF-8"?>
<svg height="16px" viewBox="0 0 16 16" width="16px" xmlns="http://www.w3.org/2000/svg" xmlns:xlink="http://www.w3.org/1999/xlink">
    <filter id="a" height="100%" width="100%" x="0%" y="0%">
        <feColorMatrix in="SourceGraphic" type="matrix" values="0 0 0 0 1 0 0 0 0 1 0 0 0 0 1 0 0 0 1 0"/>
    </filter>
    <mask id="b">
        <g filter="url(#a)">
            <rect fill-opacity="0.170685" height="16" width="16"/>
        </g>
    </mask>
    <clipPath id="c">
        <rect height="152" width="192"/>
    </clipPath>
    <g clip-path="url(#c)" mask="url(#b)" transform="matrix(1 0 0 1 -168 -16)">
        <path d="m 111.730469 76.027344 l -79.699219 -0.070313 l -0.140625 8.210938 l 80.160156 12.03125 z m 0 0"/>
    </g>
    <path d="m 4 2 v 4 h -2.5 c -0.277344 0 -0.5 0.222656 -0.5 0.5 s 0.222656 0.5 0.5 0.5 h 2.5 v 3.660156 l -2 -0.660156 v 5 h 12 v -5 l -2 0.671875 v -3.671875 h 2.5 c 0.277344 0 0.5 -0.222656 0.5 -0.5 s -0.222656 -0.5 -0.5 -0.5 h -2.5 v -4 l -4 2 z m 1 6 h 6 c 0 0.714844 -0.285156 1.375 -0.75 1.734375 c -0.464844 0.355469 -1.035156 0.355469 -1.5 0 c -0.464844 -0.359375 -0.75 -1.019531 -0.75 -1.734375 c 0 0.714844 -0.285156 1.375 -0.75 1.734375 c -0.464844 0.355469 -1.035156 0.355469 -1.5 0 c -0.464844 -0.359375 -0.75 -1.019531 -0.75 -1.734375 z m 0 0" fill-opacity="0.987422"/>
</svg>
