<?xml version="1.0" encoding="UTF-8" standalone="no"?>
<svg
   height="16px"
   viewBox="0 0 16 16"
   width="16px"
   version="1.1"
   id="svg5033"
   sodipodi:docname="threads-symbolic.svg"
   inkscape:version="1.3 (0e150ed6c4, 2023-07-21)"
   xmlns:inkscape="http://www.inkscape.org/namespaces/inkscape"
   xmlns:sodipodi="http://sodipodi.sourceforge.net/DTD/sodipodi-0.dtd"
   xmlns="http://www.w3.org/2000/svg"
   xmlns:svg="http://www.w3.org/2000/svg">
  <defs
     id="defs5037" />
  <sodipodi:namedview
     id="namedview5035"
     pagecolor="#ffffff"
     bordercolor="#666666"
     borderopacity="1.0"
     inkscape:showpageshadow="2"
     inkscape:pageopacity="0.0"
     inkscape:pagecheckerboard="0"
     inkscape:deskcolor="#d1d1d1"
     showgrid="false"
     inkscape:zoom="4.3979077"
     inkscape:cx="-115.1684"
     inkscape:cy="34.902961"
     inkscape:window-width="1920"
     inkscape:window-height="1011"
     inkscape:window-x="0"
     inkscape:window-y="0"
     inkscape:window-maximized="1"
     inkscape:current-layer="svg5033" />
  <path
     d="M 2.188,2 C 0.982,2 0,3.018 0,4.219 v 7.562 C 0,12.982 0.982,14 2.188,14 H 13.812 C 15.018,14 16,12.981999 16,11.781 V 4.22 C 16,3.018 15.018,2 13.812,2 Z m 0,2 H 13.812 C 13.932,4 14,4.08 14,4.219 v 7.562 C 14,11.919999 13.933,12 13.812,12 H 2.188 C 2.068,12 2,11.919999 2,11.781 V 4.22 C 2,4.08 2.067,4 2.188,4 Z"
     style="font-weight:400;line-height:normal;-inkscape-font-specification:'Bitstream Vera Sans';text-indent:0;text-align:start;text-decoration-line:none;text-transform:none;fill:#2e3436;marker:none"
     color="#bebebe"
     font-family="'Bitstream Vera Sans'"
     overflow="visible"
     id="path113" />
  <path
     d="m 3,9 h 1 v 2 H 3 Z m 0,0"
     id="path5029"
     style="stroke-width:0.392232" />
  <path
     d="m 5,5 h 1 v 6 H 5 Z m 0,0"
     id="path5029-3"
     style="stroke-width:0.679374" />
  <path
     d="m 7,8 h 1 v 3 H 7 Z m 0,0"
     id="path5029-3-7"
     style="stroke-width:0.48039" />
  <path
     d="m 9,6 h 1 v 5 H 9 Z m 0,0"
     id="path5029-3-7-5"
     style="stroke-width:0.620181" />
  <path
     d="m 3,10 h 10 v 1 H 3 Z m 0,0"
     id="path5029-3-3"
     style="stroke-width:0.877071" />
  <path
     d="m 12,8 h 1 v 3 h -1 z m 0,0"
     id="path5029-3-3-6"
     style="stroke-width:0.480391" />
</svg>
