<svg xmlns="http://www.w3.org/2000/svg" width="64" height="64" version="1.0"><defs><linearGradient id="a"><stop offset="0" stop-color="#d5d3cf"/><stop offset="1" stop-color="#f6f5f4"/></linearGradient><linearGradient id="b"><stop offset="0" stop-color="#d5d3cf"/><stop offset="1" stop-color="#949390"/></linearGradient><linearGradient id="c"><stop offset="0" stop-color="#9a9996"/><stop offset="1" stop-color="#77767b"/></linearGradient><linearGradient id="d"><stop offset="0" stop-color="#424048"/><stop offset=".047" stop-color="#f6f5f4"/><stop offset=".097" stop-color="#949390"/><stop offset=".9" stop-color="#d5d3cf"/><stop offset=".95" stop-color="#f6f5f4"/><stop offset="1" stop-color="#424048"/></linearGradient></defs><g transform="translate(0 -236)"><rect ry="3.804" rx="3.804" y="247" x="4.02" height="42.159" width="56.02" style="marker:none" color="#000" overflow="visible" fill="#fff" stroke="#98c1f1" stroke-width="4"/><path style="isolation:auto;mix-blend-mode:normal;solid-color:#000;solid-opacity:1;marker:none" color="#000" overflow="visible" fill="none" d="M4.272 239.04h57.102v57.102H4.272z"/><rect style="marker:none" width="42.453" height="31.378" x="8.01" y="251.928" rx="1.846" ry="1.846" fill="#98c1f1"/><path d="M9.855 269.463H23.7l3.691-9.23L29.236 275l3.692-5.537h15.689" opacity=".236" fill="none" stroke="#fff" stroke-miterlimit="10"/><path d="M9.855 269.02H23.7l3.691-9.228 1.846 14.766 3.692-5.537h1.73" fill="none" stroke="#fff" stroke-width="2" stroke-linecap="round" stroke-miterlimit="10"/><path style="marker:none" d="M56 268.094V270a1.905 1.905 0 01-1.905 1.905A1.905 1.905 0 0152.189 270a1.905 1.905 0 011.906-1.906zM52.189 260.095V262a1.905 1.905 0 001.906 1.906A1.905 1.905 0 0056 262a1.905 1.905 0 00-1.905-1.905zM56 256v-1.905a1.905 1.905 0 00-1.905-1.906 1.905 1.905 0 00-1.906 1.906A1.905 1.905 0 0054.095 256z" fill="#98c1f1"/></g></svg>