<svg xmlns="http://www.w3.org/2000/svg" width="64" height="64" version="1.0"><defs><linearGradient id="a"><stop offset="0" stop-color="#d5d3cf"/><stop offset="1" stop-color="#f6f5f4"/></linearGradient><linearGradient id="b"><stop offset="0" stop-color="#d5d3cf"/><stop offset="1" stop-color="#949390"/></linearGradient><linearGradient id="c"><stop offset="0" stop-color="#9a9996"/><stop offset="1" stop-color="#77767b"/></linearGradient></defs><g transform="translate(0 -236)"><rect ry="3.804" rx="3.804" y="240.159" x="4.101" height="55.841" width="56.02" style="marker:none" color="#000" overflow="visible" fill="#fff" stroke="#98c1f1" stroke-width="4"/><path style="isolation:auto;mix-blend-mode:normal;solid-color:#000;solid-opacity:1;marker:none" color="#000" overflow="visible" fill="none" d="M4.352 239.04h57.102v57.102H4.352z"/><rect transform="rotate(90)" style="marker:none" width="2" height="12" x="287.967" y="-30" rx="0" ry="0" color="#bebebe" overflow="visible" fill="#98c1f1"/><path d="M17.433 284l-5.719 5.719a1.01 1.01 0 01-.718.281h-1v-1c0-.256.085-.523.28-.719L14.559 284l-4.281-4.281a1.01 1.01 0 01-.281-.719v-1h1c.255 0 .522.085.718.281z" fill="#98c1f1"/><path d="M4.596 255.5h55.08" style="isolation:auto;mix-blend-mode:normal;solid-color:#000;solid-opacity:1;marker:none" color="#000" overflow="visible" fill="#eeeeec" stroke="#98c1f1"/><path style="line-height:normal;font-variant-ligatures:normal;font-variant-position:normal;font-variant-caps:normal;font-variant-numeric:normal;font-variant-alternates:normal;font-feature-settings:normal;text-indent:0;text-align:start;text-decoration-line:none;text-decoration-style:solid;text-decoration-color:#000;text-transform:none;text-orientation:mixed;white-space:normal;shape-padding:0;isolation:auto;mix-blend-mode:normal;solid-color:#000;solid-opacity:1;marker:none" d="M49.35 245.956l-.025.025H48.19v1.153l-.018.018 1.78 1.764-1.78 1.763.025.025h-.008v1.16h1.152l.01.01.01-.01h.013v-.014l1.767-1.753 1.793 1.776.01-.01h1.165v-1.16h-.022l.026-.026-1.78-1.763 1.78-1.764-.01-.01h.005v-1.161H52.96l-.025-.025-1.793 1.776z" color="#000" font-weight="400" font-family="sans-serif" overflow="visible" fill="#98c1f1"/></g></svg>