<svg xmlns="http://www.w3.org/2000/svg" width="64" height="64" version="1.0"><defs><linearGradient id="a"><stop offset="0" stop-color="#d5d3cf"/><stop offset="1" stop-color="#f6f5f4"/></linearGradient><linearGradient id="b"><stop offset="0" stop-color="#d5d3cf"/><stop offset="1" stop-color="#949390"/></linearGradient><linearGradient id="c"><stop offset="0" stop-color="#9a9996"/><stop offset="1" stop-color="#77767b"/></linearGradient><clipPath id="d" clipPathUnits="userSpaceOnUse"><rect ry="32" rx="32" y="-116" x="32" height="358.794" width="448.707" fill="#26a269" stroke-linejoin="round" stroke-dasharray="4,2"/></clipPath></defs><g transform="translate(0 -236)"><rect style="marker:none" width="48" height="32" x="8" y="240" rx="2.276" ry="2.276" fill="#fff"/><path d="M25.448 271.806v5.308l-3.088 3.088h-3.498l-4.608 4.608v8.592h1.4v-8.014l3.789-3.788h3.498l3.908-3.908v-5.886z" style="line-height:normal;font-variant-ligatures:normal;font-variant-position:normal;font-variant-caps:normal;font-variant-numeric:normal;font-variant-alternates:normal;font-feature-settings:normal;text-indent:0;text-align:start;text-decoration-line:none;text-decoration-style:solid;text-decoration-color:#000;text-transform:none;text-orientation:mixed;white-space:normal;shape-padding:0;isolation:auto;mix-blend-mode:normal;solid-color:#000;solid-opacity:1;marker:none" color="#000" font-weight="400" font-family="sans-serif" overflow="visible" fill="#98c1f1"/><path d="M28.247 271.71v7.503l-6.997 6.996v5.886h1.401v-5.308l6.996-6.996v-8.08z" style="line-height:normal;font-variant-ligatures:normal;font-variant-position:normal;font-variant-caps:normal;font-variant-numeric:normal;font-variant-alternates:normal;font-feature-settings:normal;text-indent:0;text-align:start;text-decoration-line:none;text-decoration-style:solid;text-decoration-color:#000;text-transform:none;text-orientation:mixed;white-space:normal;shape-padding:0;isolation:auto;mix-blend-mode:normal;solid-color:#000;solid-opacity:1;marker:none" color="#000" font-weight="400" font-family="sans-serif" overflow="visible" fill="#98c1f1"/><g clip-path="url(#d)" style="marker:none" transform="matrix(.1749 0 0 .17462 .609 255.695)" fill="#98c1f1" stroke-width="11.89"><path style="marker:none" d="M282.021 182.22c6.648 0 12 5.351 12 12v56c0 6.647-5.352 12-12 12s-12-5.353-12-12v-56c0-6.649 5.352-12 12-12zm-40 0c6.648 0 12 5.351 12 12v56c0 6.647-5.352 12-12 12s-12-5.353-12-12v-56c0-6.649 5.352-12 12-12zm-40 0c6.648 0 12 5.351 12 12v56c0 6.647-5.352 12-12 12s-12-5.353-12-12v-56c0-6.649 5.352-12 12-12zm-40 0c6.648 0 12 5.351 12 12v56c0 6.647-5.352 12-12 12s-12-5.353-12-12v-56c0-6.649 5.352-12 12-12zm-40 0c6.648 0 12 5.351 12 12v56c0 6.647-5.352 12-12 12s-12-5.353-12-12v-56c0-6.649 5.352-12 12-12zm-40 0c6.648 0 12 5.351 12 12v56c0 6.647-5.352 12-12 12s-12-5.353-12-12v-56c0-6.649 5.352-12 12-12z"/><path style="marker:none" d="M270.021 234.781h24v16h-24zm-40 0h24v16h-24zm-40 0h24v16h-24zm-40 0h24v16h-24zm-40 0h24v16h-24zm-40 0h24v16h-24z"/></g><path d="M36.644 271.807v9.384l5.593 5.598v3.207h1.4v-3.785l-5.593-5.599v-8.805zM33.845 271.807v12.183l1.4 1.4v4.606h1.4v-5.185l-1.4-1.4v-11.604zM31.046 271.807v8.805l-2.8 2.8v6.584h1.4v-6.006l2.8-2.8v-9.383z" style="line-height:normal;font-variant-ligatures:normal;font-variant-position:normal;font-variant-caps:normal;font-variant-numeric:normal;font-variant-alternates:normal;font-feature-settings:normal;text-indent:0;text-align:start;text-decoration-line:none;text-decoration-style:solid;text-decoration-color:#000;text-transform:none;text-orientation:mixed;white-space:normal;shape-padding:0;isolation:auto;mix-blend-mode:normal;solid-color:#000;solid-opacity:1;marker:none" color="#000" font-weight="400" font-family="sans-serif" overflow="visible" fill="#98c1f1"/><path style="marker:none" d="M28 239.986V244h8v-4.014zM36 244v8h-8v8h-8v8.133h-8V260H8v9.93c0 1.162.937 2.1 2.1 2.1h43.8c1.163 0 2.1-.938 2.1-2.1V244h-4v8h-8v-8zm8 0h8v-4.014h-8z" fill="#98c1f1"/><path d="M39.443 271.807v5.185l9.792 9.797v2.51h1.4v-3.088l-9.797-9.797v-4.607z" style="line-height:normal;font-variant-ligatures:normal;font-variant-position:normal;font-variant-caps:normal;font-variant-numeric:normal;font-variant-alternates:normal;font-feature-settings:normal;text-indent:0;text-align:start;text-decoration-line:none;text-decoration-style:solid;text-decoration-color:#000;text-transform:none;text-orientation:mixed;white-space:normal;shape-padding:0;isolation:auto;mix-blend-mode:normal;solid-color:#000;solid-opacity:1;marker:none" color="#000" font-weight="400" font-family="sans-serif" overflow="visible" fill="#98c1f1"/><path d="M25.449 271.107v2.798c0 .388.312.7.7.7.387 0 .699-.312.699-.7v-2.798zm2.798 0v2.798c0 .388.312.7.7.7.387 0 .7-.312.7-.7v-2.798zm2.799 0v2.798c0 .388.312.7.7.7.387 0 .699-.312.699-.7v-2.798zm2.798 0v2.798c0 .388.312.7.7.7.387 0 .7-.312.7-.7v-2.798zm2.799 0v2.798c0 .388.312.7.7.7.387 0 .699-.312.699-.7v-2.798zm2.798 0v2.798c0 .388.312.7.7.7.387 0 .7-.312.7-.7v-2.798z" style="marker:none" fill="#98c1f1"/><path d="M4.404 0A4.405 4.405 0 000 4.425v40.161a4.405 4.405 0 004.404 4.425h52.06a4.405 4.405 0 004.403-4.425V4.426A4.405 4.405 0 0056.463 0h-2.211a4.41 4.41 0 11-8.82 0z" style="marker:none;font-variant-east_asian:normal" fill="#98c1f1"/><path style="marker:none" fill="#63452c" d="M-24.549 252h8v8h-8z"/></g></svg>