<svg xmlns="http://www.w3.org/2000/svg" xmlns:xlink="http://www.w3.org/1999/xlink" width="64" height="64" version="1.0"><defs><linearGradient id="a"><stop offset="0" stop-color="#d5d3cf"/><stop offset="1" stop-color="#f6f5f4"/></linearGradient><linearGradient id="b"><stop offset="0" stop-color="#d5d3cf"/><stop offset="1" stop-color="#949390"/></linearGradient><linearGradient id="c"><stop offset="0" stop-color="#9a9996"/><stop offset="1" stop-color="#77767b"/></linearGradient><linearGradient y2="254" x2="37" y1="249" x1="37" gradientTransform="matrix(.55127 0 0 .55127 95.628 128.402)" gradientUnits="userSpaceOnUse" id="f" xlink:href="#d"/><linearGradient id="d"><stop offset="0" stop-color="#d5d1cc"/><stop offset=".183" stop-color="#f6f5f4"/><stop offset=".395" stop-color="#fff"/><stop offset=".784" stop-color="#d7d3ce"/><stop offset="1" stop-color="#c8c2bb"/></linearGradient><linearGradient xlink:href="#d" id="g" gradientUnits="userSpaceOnUse" gradientTransform="matrix(.55127 0 0 -.55127 95.628 398.522)" x1="37" y1="249" x2="37" y2="254"/><clipPath id="e" clipPathUnits="userSpaceOnUse"><rect ry="32" rx="32" y="-116" x="32" height="358.794" width="448.707" fill="#26a269" stroke-linejoin="round" stroke-dasharray="4,2"/></clipPath></defs><g transform="translate(0 -236)"><rect ry="3.804" rx="3.804" y="246.246" x="10.207" height="43.668" width="43.808" style="marker:none" color="#000" overflow="visible" fill="#fff" stroke="#98c1f1" stroke-width="4"/><path style="isolation:auto;mix-blend-mode:normal;solid-color:#000;solid-opacity:1;marker:none" color="#000" overflow="visible" fill="none" d="M4.352 239.04h57.102v57.102H4.352z"/><path d="M83.266 242.014a4.405 4.405 0 00-4.404 4.425v40.16a4.405 4.405 0 004.404 4.426h52.06a4.405 4.405 0 004.403-4.425v-40.161a4.405 4.405 0 00-4.403-4.425h-2.212a4.41 4.41 0 11-8.82 0z" style="marker:none" fill="#98c1f1"/><path d="M93.422 268.905v6.457l-2.433 2.433h-2.756l-3.63 3.63v6.77h1.103v-6.314l2.984-2.984h2.757l3.079-3.08v-6.912z" style="line-height:normal;font-variant-ligatures:normal;font-variant-position:normal;font-variant-caps:normal;font-variant-numeric:normal;font-variant-alternates:normal;font-feature-settings:normal;text-indent:0;text-align:start;text-decoration-line:none;text-decoration-style:solid;text-decoration-color:#000;text-transform:none;text-orientation:mixed;white-space:normal;shape-padding:0;isolation:auto;mix-blend-mode:normal;solid-color:#000;solid-opacity:1" color="#000" font-weight="400" font-family="sans-serif" overflow="visible" fill="#fff"/><path d="M95.627 271.104v5.911l-5.512 5.513v4.638h1.103V282.984l5.513-5.513v-6.367z" style="line-height:normal;font-variant-ligatures:normal;font-variant-position:normal;font-variant-caps:normal;font-variant-numeric:normal;font-variant-alternates:normal;font-feature-settings:normal;text-indent:0;text-align:start;text-decoration-line:none;text-decoration-style:solid;text-decoration-color:#000;text-transform:none;text-orientation:mixed;white-space:normal;shape-padding:0;isolation:auto;mix-blend-mode:normal;solid-color:#000;solid-opacity:1" color="#000" font-weight="400" font-family="sans-serif" overflow="visible" fill="#fff"/><g clip-path="url(#e)" transform="matrix(.13782 0 0 .1376 73.85 257.696)" fill="#fff" stroke-width="1.001" paint-order="markers fill stroke"><path d="M402.021 182.22c6.648 0 12 5.351 12 12v56c0 6.647-5.352 12-12 12s-12-5.353-12-12v-56c0-6.649 5.352-12 12-12zm-40 0c6.648 0 12 5.351 12 12v56c0 6.647-5.352 12-12 12s-12-5.353-12-12v-56c0-6.649 5.352-12 12-12zm-40 0c6.648 0 12 5.351 12 12v56c0 6.647-5.352 12-12 12s-12-5.353-12-12v-56c0-6.649 5.352-12 12-12zm-40 0c6.648 0 12 5.351 12 12v56c0 6.647-5.352 12-12 12s-12-5.353-12-12v-56c0-6.649 5.352-12 12-12zm-40 0c6.648 0 12 5.351 12 12v56c0 6.647-5.352 12-12 12s-12-5.353-12-12v-56c0-6.649 5.352-12 12-12zm-40 0c6.648 0 12 5.351 12 12v56c0 6.647-5.352 12-12 12s-12-5.353-12-12v-56c0-6.649 5.352-12 12-12zm-40 0c6.648 0 12 5.351 12 12v56c0 6.647-5.352 12-12 12s-12-5.353-12-12v-56c0-6.649 5.352-12 12-12zm-40 0c6.648 0 12 5.351 12 12v56c0 6.647-5.352 12-12 12s-12-5.353-12-12v-56c0-6.649 5.352-12 12-12zm-40 0c6.648 0 12 5.351 12 12v56c0 6.647-5.352 12-12 12s-12-5.353-12-12v-56c0-6.649 5.352-12 12-12z"/><path d="M350.021 234.781h24v16h-24zm-40 0h24v16h-24zm-40 0h24v16h-24zm-40 0h24v16h-24zm-40 0h24v16h-24zm-40 0h24v16h-24zm-40 0h24v16h-24zm-40 0h24v16h-24z"/><rect ry="0" rx="0" y="234.219" x="390.021" height="16" width="24"/></g><path d="M102.244 271.18v7.394l4.408 4.411v2.527h1.102v-2.983l-4.407-4.41v-6.94zM100.039 271.18v9.6l1.103 1.102v3.63h1.102v-4.085l-1.102-1.103v-9.144zM97.833 271.18v6.938l-2.205 2.206v5.188h1.102v-4.732l2.206-2.206v-7.394z" style="line-height:normal;font-variant-ligatures:normal;font-variant-position:normal;font-variant-caps:normal;font-variant-numeric:normal;font-variant-alternates:normal;font-feature-settings:normal;text-indent:0;text-align:start;text-decoration-line:none;text-decoration-style:solid;text-decoration-color:#000;text-transform:none;text-orientation:mixed;white-space:normal;shape-padding:0;isolation:auto;mix-blend-mode:normal;solid-color:#000;solid-opacity:1" color="#000" font-weight="400" font-family="sans-serif" overflow="visible" fill="#fff"/><rect ry="1.654" rx="1.654" y="258.5" x="91.218" height="12.679" width="16.538" style="marker:none" fill="#3584e4"/><path d="M97.28 249.128v1.103h5.84l1.33 1.33v6.39h1.099v-6.845l-1.974-1.978z" style="line-height:normal;font-variant-ligatures:normal;font-variant-position:normal;font-variant-caps:normal;font-variant-numeric:normal;font-variant-alternates:normal;font-feature-settings:normal;text-indent:0;text-align:start;text-decoration-line:none;text-decoration-style:solid;text-decoration-color:#000;text-transform:none;text-orientation:mixed;white-space:normal;shape-padding:0;isolation:auto;mix-blend-mode:normal;solid-color:#000;solid-opacity:1" color="#000" font-weight="400" font-family="sans-serif" overflow="visible" fill="#fff"/><path d="M100.979 249.29l-.777.778 2.042 2.047v5.835h1.103v-6.295z" style="line-height:normal;font-variant-ligatures:normal;font-variant-position:normal;font-variant-caps:normal;font-variant-numeric:normal;font-variant-alternates:normal;font-feature-settings:normal;text-indent:0;text-align:start;text-decoration-line:none;text-decoration-style:solid;text-decoration-color:#000;text-transform:none;text-orientation:mixed;white-space:normal;shape-padding:0;isolation:auto;mix-blend-mode:normal;solid-color:#000;solid-opacity:1" color="#000" font-weight="400" font-family="sans-serif" overflow="visible" fill="#fff"/><path d="M98.224 249.29l-.781.778 2.596 2.596v5.286h1.103v-5.742z" style="line-height:normal;font-variant-ligatures:normal;font-variant-position:normal;font-variant-caps:normal;font-variant-numeric:normal;font-variant-alternates:normal;font-feature-settings:normal;text-indent:0;text-align:start;text-decoration-line:none;text-decoration-style:solid;text-decoration-color:#000;text-transform:none;text-orientation:mixed;white-space:normal;shape-padding:0;isolation:auto;mix-blend-mode:normal;solid-color:#000;solid-opacity:1" color="#000" font-weight="400" font-family="sans-serif" overflow="visible" fill="#fff"/><path d="M91.216 252.436v1.103h5.836l.781.781v3.63h1.103v-4.09l-1.424-1.424z" style="line-height:normal;font-variant-ligatures:normal;font-variant-position:normal;font-variant-caps:normal;font-variant-numeric:normal;font-variant-alternates:normal;font-feature-settings:normal;text-indent:0;text-align:start;text-decoration-line:none;text-decoration-style:solid;text-decoration-color:#000;text-transform:none;text-orientation:mixed;white-space:normal;shape-padding:0;isolation:auto;mix-blend-mode:normal;solid-color:#000;solid-opacity:1" color="#000" font-weight="400" font-family="sans-serif" overflow="visible" fill="#fff"/><path d="M95.628 253.54v4.41h1.102v-4.41zM93.422 253.54v4.41h1.103v-4.41z" style="line-height:normal;font-variant-ligatures:normal;font-variant-position:normal;font-variant-caps:normal;font-variant-numeric:normal;font-variant-alternates:normal;font-feature-settings:normal;text-indent:0;text-align:start;text-decoration-line:none;text-decoration-style:solid;text-decoration-color:#000;text-transform:none;text-orientation:mixed;white-space:normal;shape-padding:0;isolation:auto;mix-blend-mode:normal;solid-color:#000;solid-opacity:1" color="#000" font-weight="400" font-family="sans-serif" overflow="visible" fill="#fff"/><path d="M93.974 255.191a.55.55 0 00-.551.551v2.207h1.102v-2.207a.55.55 0 00-.55-.551zm2.205 0a.55.55 0 00-.551.551v2.207h1.102v-2.207a.55.55 0 00-.55-.551zm2.205 0a.55.55 0 00-.551.551v2.207h1.103v-2.207a.55.55 0 00-.552-.551zm2.205 0a.55.55 0 00-.55.551v2.207h1.102v-2.207a.55.55 0 00-.552-.551zm2.205 0a.55.55 0 00-.55.551v2.207h1.102v-2.207a.55.55 0 00-.552-.551zm2.205 0a.55.55 0 00-.55.551v2.207h1.102v-2.207a.55.55 0 00-.552-.551z" fill="#fff" paint-order="markers fill stroke"/><rect style="marker:none" width="16.538" height="13.23" x="91.218" y="256.847" rx="1.654" ry="1.654" fill="#a3c7f3"/><path d="M104.45 271.18v4.086l7.716 7.72v1.977h1.102v-2.434l-7.72-7.72v-3.63z" style="line-height:normal;font-variant-ligatures:normal;font-variant-position:normal;font-variant-caps:normal;font-variant-numeric:normal;font-variant-alternates:normal;font-feature-settings:normal;text-indent:0;text-align:start;text-decoration-line:none;text-decoration-style:solid;text-decoration-color:#000;text-transform:none;text-orientation:mixed;white-space:normal;shape-padding:0;isolation:auto;mix-blend-mode:normal;solid-color:#000;solid-opacity:1" color="#000" font-weight="400" font-family="sans-serif" overflow="visible" fill="#fff"/><rect width="8.269" height="1.103" x="93.423" y="260.154" rx="0" ry="0" paint-order="markers fill stroke" fill="none"/><rect ry="0" rx="0" y="262.359" x="93.423" height="2.205" width="4.41" paint-order="markers fill stroke" fill="none"/><rect width="6.064" height="2.205" x="98.384" y="262.359" rx="0" ry="0" paint-order="markers fill stroke" fill="none"/><path d="M114.92 270.077a1.66 1.66 0 00-1.652 1.652c0 .907.746 1.656 1.653 1.656.906 0 1.656-.749 1.656-1.656 0-.907-.75-1.652-1.656-1.652zm0 1.103c.311 0 .554.238.554.55a.547.547 0 01-.553.553.543.543 0 01-.55-.554.54.54 0 01.55-.55zM119.332 270.077a1.66 1.66 0 00-1.652 1.652c0 .907.745 1.656 1.652 1.656.907 0 1.656-.749 1.656-1.656 0-.907-.75-1.652-1.656-1.652zm0 1.103c.31 0 .553.238.553.55a.547.547 0 01-.553.553.543.543 0 01-.55-.554.54.54 0 01.55-.55zM125.949 270.077c-.907 0-1.657.745-1.657 1.652 0 .907.75 1.656 1.657 1.656.906 0 1.652-.749 1.652-1.656a1.66 1.66 0 00-1.652-1.652zm0 1.103a.54.54 0 01.549.55.543.543 0 01-.55.553.547.547 0 01-.553-.554c0-.31.243-.55.554-.55zM125.949 265.666c-.907 0-1.657.75-1.657 1.656 0 .907.75 1.652 1.657 1.652a1.66 1.66 0 001.652-1.652c0-.907-.746-1.656-1.652-1.656zm0 1.103c.31 0 .549.242.549.553a.54.54 0 01-.55.55.543.543 0 01-.553-.55c0-.31.243-.553.554-.553z" style="line-height:normal;font-variant-ligatures:normal;font-variant-position:normal;font-variant-caps:normal;font-variant-numeric:normal;font-variant-alternates:normal;font-feature-settings:normal;text-indent:0;text-align:start;text-decoration-line:none;text-decoration-style:solid;text-decoration-color:#000;text-transform:none;text-orientation:mixed;white-space:normal;shape-padding:0;isolation:auto;mix-blend-mode:normal;solid-color:#000;solid-opacity:1" color="#000" font-weight="400" font-family="sans-serif" overflow="visible" fill="#fff" paint-order="markers fill stroke"/><path d="M114.371 272.832v1.33l3.309 3.31v8.04h1.102v-8.497l-3.308-3.308v-.875zM118.782 273.241v1.33l1.425 1.429h4.867l1.424-1.428v-1.331h-1.103v.875l-.777.781h-3.956l-.777-.781v-.875z" style="line-height:normal;font-variant-ligatures:normal;font-variant-position:normal;font-variant-caps:normal;font-variant-numeric:normal;font-variant-alternates:normal;font-feature-settings:normal;text-indent:0;text-align:start;text-decoration-line:none;text-decoration-style:solid;text-decoration-color:#000;text-transform:none;text-orientation:mixed;white-space:normal;shape-padding:0;isolation:auto;mix-blend-mode:normal;solid-color:#000;solid-opacity:1" color="#000" font-weight="400" font-family="sans-serif" overflow="visible" fill="#fff"/><path d="M96.181 248.025c-.907 0-1.656.75-1.656 1.656 0 .907.75 1.652 1.656 1.652a1.66 1.66 0 001.652-1.652c0-.907-.745-1.656-1.652-1.656zm0 1.103c.311 0 .55.242.55.553a.54.54 0 01-.55.55.543.543 0 01-.553-.55c0-.31.242-.553.553-.553zM90.114 251.333c-.907 0-1.653.75-1.653 1.657a1.66 1.66 0 001.653 1.652c.906 0 1.656-.745 1.656-1.652 0-.907-.75-1.657-1.656-1.657zm0 1.103c.31 0 .553.243.553.554 0 .31-.242.55-.553.55a.54.54 0 01-.55-.55c0-.311.239-.554.55-.554z" style="line-height:normal;font-variant-ligatures:normal;font-variant-position:normal;font-variant-caps:normal;font-variant-numeric:normal;font-variant-alternates:normal;font-feature-settings:normal;text-indent:0;text-align:start;text-decoration-line:none;text-decoration-style:solid;text-decoration-color:#000;text-transform:none;text-orientation:mixed;white-space:normal;shape-padding:0;isolation:auto;mix-blend-mode:normal;solid-color:#000;solid-opacity:1" color="#000" font-weight="400" font-family="sans-serif" overflow="visible" fill="#fff" paint-order="markers fill stroke"/><path fill="#fff" paint-order="markers fill stroke" d="M80.851 273h4v3h-4zM80.851 271h4.205v1.103h-4.205zM84.603 263.462h4.41v1.103h-4.41zM84.603 259.052h4.41v3.308h-4.41zM84.603 256.847h4.41v1.103h-4.41z"/><path d="M124.292 259.598c0 .907.75 1.657 1.657 1.657.906 0 1.652-.75 1.652-1.657a1.66 1.66 0 00-1.652-1.652c-.907 0-1.657.746-1.657 1.652zm1.103 0c0-.31.243-.549.554-.549a.54.54 0 01.549.55.543.543 0 01-.55.553.547.547 0 01-.553-.554zM124.292 252.986c0 .907.75 1.652 1.657 1.652a1.66 1.66 0 001.652-1.652c0-.907-.746-1.657-1.652-1.657-.907 0-1.657.75-1.657 1.657zm1.103 0c0-.311.243-.554.554-.554.31 0 .549.243.549.554a.54.54 0 01-.55.549.543.543 0 01-.553-.55zM119.885 252.986a1.66 1.66 0 001.652 1.652 1.66 1.66 0 001.652-1.652c0-.907-.745-1.657-1.652-1.657-.907 0-1.652.75-1.652 1.657zm1.103 0c0-.311.238-.554.55-.554.31 0 .549.243.549.554a.54.54 0 01-.55.549.54.54 0 01-.55-.55z" style="line-height:normal;font-variant-ligatures:normal;font-variant-position:normal;font-variant-caps:normal;font-variant-numeric:normal;font-variant-alternates:normal;font-feature-settings:normal;text-indent:0;text-align:start;text-decoration-line:none;text-decoration-style:solid;text-decoration-color:#000;text-transform:none;text-orientation:mixed;white-space:normal;shape-padding:0;isolation:auto;mix-blend-mode:normal;solid-color:#000;solid-opacity:1" color="#000" font-weight="400" font-family="sans-serif" overflow="visible" fill="#fff" paint-order="markers fill stroke"/><path d="M127.199 252.432v1.103h.875l.777.781v3.952l-.777.781h-.875v1.103h1.33l1.425-1.424v-4.867l-1.425-1.429z" style="line-height:normal;font-variant-ligatures:normal;font-variant-position:normal;font-variant-caps:normal;font-variant-numeric:normal;font-variant-alternates:normal;font-feature-settings:normal;text-indent:0;text-align:start;text-decoration-line:none;text-decoration-style:solid;text-decoration-color:#000;text-transform:none;text-orientation:mixed;white-space:normal;shape-padding:0;isolation:auto;mix-blend-mode:normal;solid-color:#000;solid-opacity:1" color="#000" font-weight="400" font-family="sans-serif" overflow="visible" fill="#fff"/><rect ry="1.103" rx="1.103" y="260.705" x="114.371" height="6.064" width="7.718" style="marker:none" fill="#3584e4"/><path d="M115.473 266.218v1.654a.55.55 0 101.103 0v-1.654zm2.206 0v1.654a.55.55 0 101.102 0v-1.654zm2.205 0v1.654a.55.55 0 101.102 0v-1.654z" fill="url(#f)" paint-order="markers fill stroke"/><path d="M115.473 260.705v-1.653a.55.55 0 111.103 0v1.653zm2.206 0v-1.653a.55.55 0 111.102 0v1.653zm2.205 0v-1.653a.55.55 0 111.102 0v1.653z" fill="url(#g)" paint-order="markers fill stroke"/><rect style="marker:none" width="7.718" height="6.615" x="114.371" y="259.052" rx="1.103" ry="1.103" fill="#a3c7f3"/><rect ry="0" rx="0" y="260.154" x="115.473" height="1.103" width="4.41" paint-order="markers fill stroke" fill="none"/><rect width="2.205" height="1.103" x="115.473" y="262.359" rx="0" ry="0" paint-order="markers fill stroke" fill="none"/><g fill="#fff" paint-order="markers fill stroke"><path d="M130.909 276.692h3.308V280h-3.308z"/><path d="M130.909 276.692h3.308v2.205h-3.308z"/><path d="M130.909 276.692h1.102v2.205h-1.102zM130.909 280h1.102v-1.103h-1.102zM134.217 276.692h.634v2.205h-.634z"/></g><g fill="#fff" paint-order="markers fill stroke"><path d="M130.909 273.385h2.956v2.205h-2.956z"/><path d="M130.909 273.385h.985v2.205h-.985zM130.909 276.692h.985v-1.102h-.985zM133.865 273.385h.986v2.205h-.986zM133.865 276.692h.986v-1.102h-.986z"/></g><path paint-order="markers fill stroke" d="M111.851 249v-4h2.103v4zM117.851 249.129v-4.13h2.033v4.13zM114.851 249.129v-4.13h2v4.13zM93.423 270.628v2.205a.55.55 0 101.102 0v-2.205zm2.205 0v2.205a.55.55 0 101.102 0v-2.205zm2.205 0v2.205a.55.55 0 101.103 0v-2.205zm2.205 0v2.205a.55.55 0 101.103 0v-2.205zm2.205 0v2.205a.55.55 0 101.103 0v-2.205zm2.205 0v2.205a.55.55 0 101.103 0v-2.205z" fill="#fff"/><path style="marker:none" d="M14 291v2c0 .741.404 1.38 1 1.725V296c0 .554.446 1 1 1s1-.446 1-1v-1.275A1.99 1.99 0 0018 293v-2zM18 291v2c0 .741.404 1.38 1 1.725V296c0 .554.446 1 1 1s1-.446 1-1v-1.275A1.99 1.99 0 0022 293v-2zM22 291v2c0 .741.404 1.38 1 1.725V296c0 .554.446 1 1 1s1-.446 1-1v-1.275A1.99 1.99 0 0026 293v-2zM26 291v2c0 .741.404 1.38 1 1.725V296c0 .554.446 1 1 1s1-.446 1-1v-1.275A1.99 1.99 0 0030 293v-2zM30 291v2c0 .741.404 1.38 1 1.725V296c0 .554.446 1 1 1s1-.446 1-1v-1.275A1.99 1.99 0 0034 293v-2zM34 291v2c0 .741.404 1.38 1 1.725V296c0 .554.446 1 1 1s1-.446 1-1v-1.275A1.99 1.99 0 0038 293v-2zM38 291v2c0 .741.404 1.38 1 1.725V296c0 .554.446 1 1 1s1-.446 1-1v-1.275A1.99 1.99 0 0042 293v-2zM42 291v2c0 .741.404 1.38 1 1.725V296c0 .554.446 1 1 1s1-.446 1-1v-1.275A1.99 1.99 0 0046 293v-2zM46 291v2c0 .741.404 1.38 1 1.725V296c0 .554.446 1 1 1s1-.446 1-1v-1.275A1.99 1.99 0 0050 293v-2zM14 245v-2c0-.741.404-1.38 1-1.725V240c0-.554.446-1 1-1s1 .446 1 1v1.275c.596.346 1 .984 1 1.725v2zM18 245v-2c0-.741.404-1.38 1-1.725V240c0-.554.446-1 1-1s1 .446 1 1v1.275c.596.346 1 .984 1 1.725v2zM22 245v-2c0-.741.404-1.38 1-1.725V240c0-.554.446-1 1-1s1 .446 1 1v1.275c.596.346 1 .984 1 1.725v2zM26 245v-2c0-.741.404-1.38 1-1.725V240c0-.554.446-1 1-1s1 .446 1 1v1.275c.596.346 1 .984 1 1.725v2zM30 245v-2c0-.741.404-1.38 1-1.725V240c0-.554.446-1 1-1s1 .446 1 1v1.275c.596.346 1 .984 1 1.725v2zM34 245v-2c0-.741.404-1.38 1-1.725V240c0-.554.446-1 1-1s1 .446 1 1v1.275c.596.346 1 .984 1 1.725v2zM38 245v-2c0-.741.404-1.38 1-1.725V240c0-.554.446-1 1-1s1 .446 1 1v1.275c.596.346 1 .984 1 1.725v2zM42 245v-2c0-.741.404-1.38 1-1.725V240c0-.554.446-1 1-1s1 .446 1 1v1.275c.596.346 1 .984 1 1.725v2zM46 245v-2c0-.741.404-1.38 1-1.725V240c0-.554.446-1 1-1s1 .446 1 1v1.275c.596.346 1 .984 1 1.725v2zM9 250H7a1.99 1.99 0 00-1.725 1H4c-.554 0-1 .446-1 1s.446 1 1 1h1.275c.346.596.984 1 1.725 1h2zM9 254H7a1.99 1.99 0 00-1.725 1H4c-.554 0-1 .446-1 1s.446 1 1 1h1.275c.346.596.984 1 1.725 1h2zM9 258H7a1.99 1.99 0 00-1.725 1H4c-.554 0-1 .446-1 1s.446 1 1 1h1.275c.346.596.984 1 1.725 1h2zM9 262H7a1.99 1.99 0 00-1.725 1H4c-.554 0-1 .446-1 1s.446 1 1 1h1.275c.346.596.984 1 1.725 1h2zM9 266H7a1.99 1.99 0 00-1.725 1H4c-.554 0-1 .446-1 1s.446 1 1 1h1.275c.346.596.984 1 1.725 1h2zM9 270H7a1.99 1.99 0 00-1.725 1H4c-.554 0-1 .446-1 1s.446 1 1 1h1.275c.346.596.984 1 1.725 1h2zM9 274H7a1.99 1.99 0 00-1.725 1H4c-.554 0-1 .446-1 1s.446 1 1 1h1.275c.346.596.984 1 1.725 1h2zM9 278H7a1.99 1.99 0 00-1.725 1H4c-.554 0-1 .446-1 1s.446 1 1 1h1.275c.346.596.984 1 1.725 1h2zM9 282H7a1.99 1.99 0 00-1.725 1H4c-.554 0-1 .446-1 1s.446 1 1 1h1.275c.346.596.984 1 1.725 1h2zM55 250h2c.741 0 1.38.404 1.725 1H60c.554 0 1 .446 1 1s-.446 1-1 1h-1.275A1.99 1.99 0 0157 254h-2zM55 254h2c.741 0 1.38.404 1.725 1H60c.554 0 1 .446 1 1s-.446 1-1 1h-1.275A1.99 1.99 0 0157 258h-2zM55 258h2c.741 0 1.38.404 1.725 1H60c.554 0 1 .446 1 1s-.446 1-1 1h-1.275A1.99 1.99 0 0157 262h-2zM55 262h2c.741 0 1.38.404 1.725 1H60c.554 0 1 .446 1 1s-.446 1-1 1h-1.275A1.99 1.99 0 0157 266h-2zM55 266h2c.741 0 1.38.404 1.725 1H60c.554 0 1 .446 1 1s-.446 1-1 1h-1.275A1.99 1.99 0 0157 270h-2zM55 270h2c.741 0 1.38.404 1.725 1H60c.554 0 1 .446 1 1s-.446 1-1 1h-1.275A1.99 1.99 0 0157 274h-2zM55 274h2c.741 0 1.38.404 1.725 1H60c.554 0 1 .446 1 1s-.446 1-1 1h-1.275A1.99 1.99 0 0157 278h-2zM55 278h2c.741 0 1.38.404 1.725 1H60c.554 0 1 .446 1 1s-.446 1-1 1h-1.275A1.99 1.99 0 0157 282h-2zM55 282h2c.741 0 1.38.404 1.725 1H60c.554 0 1 .446 1 1s-.446 1-1 1h-1.275A1.99 1.99 0 0157 286h-2z" fill="#98c1f1"/><rect style="marker:none" width="14" height="4" x="18" y="256" rx="1" ry="1" fill="#98c1f1"/><rect style="marker:none" width="20" height="4" x="18" y="262" rx="1" ry="1" fill="#98c1f1"/></g></svg>