<svg xmlns="http://www.w3.org/2000/svg" xmlns:xlink="http://www.w3.org/1999/xlink" width="64" height="64" version="1.0"><defs><linearGradient id="a"><stop offset="0" stop-color="#d5d3cf"/><stop offset="1" stop-color="#f6f5f4"/></linearGradient><linearGradient id="b"><stop offset="0" stop-color="#d5d3cf"/><stop offset="1" stop-color="#949390"/></linearGradient><linearGradient id="c"><stop offset="0" stop-color="#9a9996"/><stop offset="1" stop-color="#77767b"/></linearGradient><linearGradient id="d"><stop offset="0" stop-color="#d5d1cc"/><stop offset=".183" stop-color="#f6f5f4"/><stop offset=".395" stop-color="#fff"/><stop offset=".784" stop-color="#d7d3ce"/><stop offset="1" stop-color="#c8c2bb"/></linearGradient><linearGradient xlink:href="#d" id="f" gradientUnits="userSpaceOnUse" gradientTransform="matrix(.55127 0 0 .55127 150.777 128.402)" x1="37" y1="249" x2="37" y2="254"/><linearGradient xlink:href="#d" id="g" gradientUnits="userSpaceOnUse" gradientTransform="matrix(.55127 0 0 -.55127 150.777 398.522)" x1="37" y1="249" x2="37" y2="254"/><clipPath id="e" clipPathUnits="userSpaceOnUse"><rect ry="32" rx="32" y="-116" x="32" height="358.794" width="448.707" fill="#26a269" stroke-linejoin="round" stroke-dasharray="4,2"/></clipPath></defs><g transform="translate(0 -236)"><rect ry="3.804" rx="3.804" y="240.159" x="-72.75" height="55.841" width="56.02" style="marker:none" color="#000" overflow="visible" fill="#fff" stroke="#98c1f1" stroke-width="4"/><path style="isolation:auto;mix-blend-mode:normal;solid-color:#000;solid-opacity:1;marker:none" color="#000" overflow="visible" fill="none" d="M-72.499 239.04h57.102v57.102h-57.102z"/><path d="M-37.65 251.778c-.556 1.01-1.084 2.333-1.666 3.334-.218-.017-.431-.073-.653-.073-.77 0-1.53.113-2.246.29-.708-.887-1.462-2.083-2.175-2.971-.66.243-1.28.525-1.884.87.222 1.119.642 2.484.87 3.623a8.945 8.945 0 00-2.03 2.03c-1.14-.228-2.505-.647-3.624-.87a12.479 12.479 0 00-.87 1.885c.889.712 2.084 1.467 2.972 2.174a9.401 9.401 0 00-.29 2.247c0 .221.057.435.072.652-1.001.583-2.324 1.11-3.334 1.667.12.638.298 1.285.508 1.885 1.14-.022 2.55-.22 3.696-.218.434.91.976 1.749 1.667 2.465-.399 1.085-1.04 2.34-1.45 3.406.494.408 1.043.757 1.595 1.088.856-.743 1.799-1.79 2.682-2.537.877.4 1.829.615 2.827.725.381 1.105.705 2.523 1.087 3.624.7-.005 1.36-.033 2.03-.145.186-1.144.255-2.595.434-3.77.951-.27 1.882-.619 2.682-1.159.984.613 2.085 1.459 3.044 2.03.52-.443 1.008-.931 1.45-1.45-.571-.96-1.416-2.06-2.03-3.044.54-.8.889-1.73 1.16-2.682 1.175-.179 2.626-.248 3.769-.435.112-.668.141-1.33.145-2.03-1.1-.38-2.518-.705-3.624-1.087-.11-.997-.325-1.95-.725-2.826.748-.884 1.795-1.826 2.537-2.682-.33-.552-.68-1.1-1.087-1.595-1.068.41-2.322 1.05-3.407 1.45-.716-.692-1.556-1.233-2.464-1.667-.002-1.146.195-2.557.217-3.697-.6-.21-1.247-.388-1.884-.507zm-2.319 7.9a4.639 4.639 0 110 9.278 4.639 4.639 0 010-9.278z" style="marker:none" color="#000" overflow="visible" fill="#98c1f1"/><path d="M-55.48 269.173c-.533.11-1.029.304-1.522.508-.038 1.448.202 3.344-.362 3.841-.554.489-2.408.08-3.841-.073a8.412 8.412 0 00-.725 1.74c1.109.918 2.645 1.946 2.682 2.682.037.745-1.453 1.867-2.465 2.899.24.598.58 1.145.942 1.667 1.411-.293 3.17-.866 3.77-.435.61.44.615 2.332.797 3.769.579.174 1.188.242 1.812.29.652-1.286 1.316-3.061 2.03-3.262.732-.205 2.234 1.063 3.478 1.812.508-.351.958-.781 1.377-1.232-.588-1.327-1.672-2.996-1.377-3.696.296-.701 2.263-1.09 3.624-1.595.01-.17.073-.334.073-.507 0-.444-.08-.88-.145-1.305-1.406-.373-3.403-.56-3.77-1.232-.363-.668.562-2.462 1.016-3.841a8.553 8.553 0 00-1.523-1.088c-1.161.87-2.514 2.307-3.261 2.175-.735-.13-1.538-1.901-2.32-3.117-.093.017-.197-.02-.29 0zm1.45 4.349a3.914 3.914 0 110 7.828 3.914 3.914 0 010-7.828z" style="marker:none" color="#000" overflow="visible" fill="#98c1f1"/><path d="M6.415 244.014a4.405 4.405 0 00-4.403 4.425v40.16a4.405 4.405 0 004.403 4.426h52.06a4.405 4.405 0 004.403-4.425v-40.161a4.405 4.405 0 00-4.403-4.425h-2.212a4.41 4.41 0 11-8.82 0z" style="marker:none" fill="#98c1f1"/><path d="M25.448 267.82v5.307l-3.088 3.089h-3.498l-4.608 4.607v8.592h1.4v-8.014l3.789-3.787h3.498l3.908-3.908v-5.886z" style="line-height:normal;font-variant-ligatures:normal;font-variant-position:normal;font-variant-caps:normal;font-variant-numeric:normal;font-variant-alternates:normal;font-feature-settings:normal;text-indent:0;text-align:start;text-decoration-line:none;text-decoration-style:solid;text-decoration-color:#000;text-transform:none;text-orientation:mixed;white-space:normal;shape-padding:0;isolation:auto;mix-blend-mode:normal;solid-color:#000;solid-opacity:1" color="#000" font-weight="400" font-family="sans-serif" overflow="visible" fill="#fff"/><path d="M28.247 267.723v7.503l-6.997 6.996V288.11h1.401V282.8l6.996-6.996v-8.082z" style="line-height:normal;font-variant-ligatures:normal;font-variant-position:normal;font-variant-caps:normal;font-variant-numeric:normal;font-variant-alternates:normal;font-feature-settings:normal;text-indent:0;text-align:start;text-decoration-line:none;text-decoration-style:solid;text-decoration-color:#000;text-transform:none;text-orientation:mixed;white-space:normal;shape-padding:0;isolation:auto;mix-blend-mode:normal;solid-color:#000;solid-opacity:1" color="#000" font-weight="400" font-family="sans-serif" overflow="visible" fill="#fff"/><g clip-path="url(#e)" transform="matrix(.1749 0 0 .17462 .609 250.708)" fill="#fff" stroke-width="1.001" paint-order="markers fill stroke"><path d="M282.021 182.22c6.648 0 12 5.351 12 12v56c0 6.647-5.352 12-12 12s-12-5.353-12-12v-56c0-6.649 5.352-12 12-12zm-40 0c6.648 0 12 5.351 12 12v56c0 6.647-5.352 12-12 12s-12-5.353-12-12v-56c0-6.649 5.352-12 12-12zm-40 0c6.648 0 12 5.351 12 12v56c0 6.647-5.352 12-12 12s-12-5.353-12-12v-56c0-6.649 5.352-12 12-12zm-40 0c6.648 0 12 5.351 12 12v56c0 6.647-5.352 12-12 12s-12-5.353-12-12v-56c0-6.649 5.352-12 12-12zm-40 0c6.648 0 12 5.351 12 12v56c0 6.647-5.352 12-12 12s-12-5.353-12-12v-56c0-6.649 5.352-12 12-12zm-40 0c6.648 0 12 5.351 12 12v56c0 6.647-5.352 12-12 12s-12-5.353-12-12v-56c0-6.649 5.352-12 12-12z"/><path d="M270.021 234.781h24v16h-24zm-40 0h24v16h-24zm-40 0h24v16h-24zm-40 0h24v16h-24zm-40 0h24v16h-24zm-40 0h24v16h-24z"/></g><path d="M36.644 267.82v9.384l5.593 5.598v3.208h1.4v-3.786l-5.593-5.598v-8.806zM33.845 267.82v12.183l1.4 1.4v4.607h1.4v-5.186l-1.4-1.4V267.82zM31.046 267.82v8.806l-2.8 2.799v6.585h1.4v-6.007l2.8-2.799v-9.384z" style="line-height:normal;font-variant-ligatures:normal;font-variant-position:normal;font-variant-caps:normal;font-variant-numeric:normal;font-variant-alternates:normal;font-feature-settings:normal;text-indent:0;text-align:start;text-decoration-line:none;text-decoration-style:solid;text-decoration-color:#000;text-transform:none;text-orientation:mixed;white-space:normal;shape-padding:0;isolation:auto;mix-blend-mode:normal;solid-color:#000;solid-opacity:1" color="#000" font-weight="400" font-family="sans-serif" overflow="visible" fill="#fff"/><rect ry="2.099" rx="2.099" y="251.729" x="22.65" height="16.091" width="20.988" style="marker:none" fill="none"/><rect style="marker:none" width="22.081" height="18" x="22" y="248" rx="2.208" ry="2.25" fill="#fff"/><path d="M39.443 267.82v5.185l9.792 9.797v2.51h1.4v-3.088l-9.797-9.797v-4.607z" style="line-height:normal;font-variant-ligatures:normal;font-variant-position:normal;font-variant-caps:normal;font-variant-numeric:normal;font-variant-alternates:normal;font-feature-settings:normal;text-indent:0;text-align:start;text-decoration-line:none;text-decoration-style:solid;text-decoration-color:#000;text-transform:none;text-orientation:mixed;white-space:normal;shape-padding:0;isolation:auto;mix-blend-mode:normal;solid-color:#000;solid-opacity:1" color="#000" font-weight="400" font-family="sans-serif" overflow="visible" fill="#fff"/><rect width="10.494" height="1.399" x="25.449" y="253.827" rx="0" ry="0" paint-order="markers fill stroke" fill="none"/><rect ry="0" rx="0" y="256.626" x="25.449" height="2.798" width="5.597" paint-order="markers fill stroke" fill="none"/><rect width="7.696" height="2.798" x="31.745" y="256.626" rx="0" ry="0" paint-order="markers fill stroke" fill="none"/><path fill="#fff" paint-order="markers fill stroke" d="M9.494 270.13h5.076v3.807H9.494zM9.494 267.592h5.337v1.399H9.494zM14.255 258.025h5.597v1.399h-5.597zM14.255 252.428h5.597v4.198h-5.597zM25.449 267.12v2.799c0 .387.312.7.7.7.387 0 .699-.313.699-.7v-2.799zm2.798 0v2.799c0 .387.312.7.7.7.387 0 .7-.313.7-.7v-2.799zm2.799 0v2.799c0 .387.312.7.7.7.387 0 .699-.313.699-.7v-2.799zm2.798 0v2.799c0 .387.312.7.7.7.387 0 .7-.313.7-.7v-2.799zm2.799 0v2.799c0 .387.312.7.7.7.387 0 .699-.313.699-.7v-2.799zm2.798 0v2.799c0 .387.312.7.7.7.387 0 .7-.313.7-.7v-2.799z"/><path style="marker:none" d="M138.415 242.014a4.405 4.405 0 00-4.403 4.425v40.16a4.405 4.405 0 004.403 4.426h52.06a4.405 4.405 0 004.403-4.425v-40.161a4.405 4.405 0 00-4.403-4.425h-2.212a4.41 4.41 0 11-8.82 0z" fill="#98c1f1"/><path style="line-height:normal;font-variant-ligatures:normal;font-variant-position:normal;font-variant-caps:normal;font-variant-numeric:normal;font-variant-alternates:normal;font-feature-settings:normal;text-indent:0;text-align:start;text-decoration-line:none;text-decoration-style:solid;text-decoration-color:#000;text-transform:none;text-orientation:mixed;white-space:normal;shape-padding:0;isolation:auto;mix-blend-mode:normal;solid-color:#000;solid-opacity:1" d="M148.571 268.905v6.457l-2.433 2.433h-2.756l-3.63 3.63v6.77h1.103v-6.314l2.984-2.984h2.757l3.079-3.08v-6.912z" color="#000" font-weight="400" font-family="sans-serif" overflow="visible" fill="#fff"/><path style="line-height:normal;font-variant-ligatures:normal;font-variant-position:normal;font-variant-caps:normal;font-variant-numeric:normal;font-variant-alternates:normal;font-feature-settings:normal;text-indent:0;text-align:start;text-decoration-line:none;text-decoration-style:solid;text-decoration-color:#000;text-transform:none;text-orientation:mixed;white-space:normal;shape-padding:0;isolation:auto;mix-blend-mode:normal;solid-color:#000;solid-opacity:1" d="M150.776 271.104v5.911l-5.512 5.513v4.638h1.103V282.984l5.513-5.513v-6.367z" color="#000" font-weight="400" font-family="sans-serif" overflow="visible" fill="#fff"/><g transform="matrix(.13782 0 0 .1376 129 257.696)" clip-path="url(#e)" fill="#fff" stroke-width="1.001" paint-order="markers fill stroke"><path d="M402.021 182.22c6.648 0 12 5.351 12 12v56c0 6.647-5.352 12-12 12s-12-5.353-12-12v-56c0-6.649 5.352-12 12-12zm-40 0c6.648 0 12 5.351 12 12v56c0 6.647-5.352 12-12 12s-12-5.353-12-12v-56c0-6.649 5.352-12 12-12zm-40 0c6.648 0 12 5.351 12 12v56c0 6.647-5.352 12-12 12s-12-5.353-12-12v-56c0-6.649 5.352-12 12-12zm-40 0c6.648 0 12 5.351 12 12v56c0 6.647-5.352 12-12 12s-12-5.353-12-12v-56c0-6.649 5.352-12 12-12zm-40 0c6.648 0 12 5.351 12 12v56c0 6.647-5.352 12-12 12s-12-5.353-12-12v-56c0-6.649 5.352-12 12-12zm-40 0c6.648 0 12 5.351 12 12v56c0 6.647-5.352 12-12 12s-12-5.353-12-12v-56c0-6.649 5.352-12 12-12zm-40 0c6.648 0 12 5.351 12 12v56c0 6.647-5.352 12-12 12s-12-5.353-12-12v-56c0-6.649 5.352-12 12-12zm-40 0c6.648 0 12 5.351 12 12v56c0 6.647-5.352 12-12 12s-12-5.353-12-12v-56c0-6.649 5.352-12 12-12zm-40 0c6.648 0 12 5.351 12 12v56c0 6.647-5.352 12-12 12s-12-5.353-12-12v-56c0-6.649 5.352-12 12-12z"/><path d="M350.021 234.781h24v16h-24zm-40 0h24v16h-24zm-40 0h24v16h-24zm-40 0h24v16h-24zm-40 0h24v16h-24zm-40 0h24v16h-24zm-40 0h24v16h-24zm-40 0h24v16h-24z"/><rect width="24" height="16" x="390.021" y="234.219" rx="0" ry="0"/></g><path style="line-height:normal;font-variant-ligatures:normal;font-variant-position:normal;font-variant-caps:normal;font-variant-numeric:normal;font-variant-alternates:normal;font-feature-settings:normal;text-indent:0;text-align:start;text-decoration-line:none;text-decoration-style:solid;text-decoration-color:#000;text-transform:none;text-orientation:mixed;white-space:normal;shape-padding:0;isolation:auto;mix-blend-mode:normal;solid-color:#000;solid-opacity:1" d="M157.393 271.18v7.394l4.408 4.411v2.527h1.102v-2.983l-4.407-4.41v-6.94zM155.188 271.18v9.6l1.103 1.102v3.63h1.102v-4.085l-1.102-1.103v-9.144zM152.982 271.18v6.938l-2.205 2.206v5.188h1.102v-4.732l2.206-2.206v-7.394z" color="#000" font-weight="400" font-family="sans-serif" overflow="visible" fill="#fff"/><rect style="marker:none" width="16.538" height="12.679" x="146.367" y="258.5" rx="1.654" ry="1.654" fill="#3584e4"/><path style="line-height:normal;font-variant-ligatures:normal;font-variant-position:normal;font-variant-caps:normal;font-variant-numeric:normal;font-variant-alternates:normal;font-feature-settings:normal;text-indent:0;text-align:start;text-decoration-line:none;text-decoration-style:solid;text-decoration-color:#000;text-transform:none;text-orientation:mixed;white-space:normal;shape-padding:0;isolation:auto;mix-blend-mode:normal;solid-color:#000;solid-opacity:1" d="M152.429 249.128v1.103h5.84l1.33 1.33v6.39h1.099v-6.845l-1.974-1.978z" color="#000" font-weight="400" font-family="sans-serif" overflow="visible" fill="#fff"/><path style="line-height:normal;font-variant-ligatures:normal;font-variant-position:normal;font-variant-caps:normal;font-variant-numeric:normal;font-variant-alternates:normal;font-feature-settings:normal;text-indent:0;text-align:start;text-decoration-line:none;text-decoration-style:solid;text-decoration-color:#000;text-transform:none;text-orientation:mixed;white-space:normal;shape-padding:0;isolation:auto;mix-blend-mode:normal;solid-color:#000;solid-opacity:1" d="M156.128 249.29l-.777.778 2.042 2.047v5.835h1.103v-6.295z" color="#000" font-weight="400" font-family="sans-serif" overflow="visible" fill="#fff"/><path style="line-height:normal;font-variant-ligatures:normal;font-variant-position:normal;font-variant-caps:normal;font-variant-numeric:normal;font-variant-alternates:normal;font-feature-settings:normal;text-indent:0;text-align:start;text-decoration-line:none;text-decoration-style:solid;text-decoration-color:#000;text-transform:none;text-orientation:mixed;white-space:normal;shape-padding:0;isolation:auto;mix-blend-mode:normal;solid-color:#000;solid-opacity:1" d="M153.373 249.29l-.781.778 2.596 2.596v5.286h1.103v-5.742z" color="#000" font-weight="400" font-family="sans-serif" overflow="visible" fill="#fff"/><path style="line-height:normal;font-variant-ligatures:normal;font-variant-position:normal;font-variant-caps:normal;font-variant-numeric:normal;font-variant-alternates:normal;font-feature-settings:normal;text-indent:0;text-align:start;text-decoration-line:none;text-decoration-style:solid;text-decoration-color:#000;text-transform:none;text-orientation:mixed;white-space:normal;shape-padding:0;isolation:auto;mix-blend-mode:normal;solid-color:#000;solid-opacity:1" d="M146.365 252.436v1.103h5.836l.781.781v3.63h1.103v-4.09l-1.424-1.424z" color="#000" font-weight="400" font-family="sans-serif" overflow="visible" fill="#fff"/><path style="line-height:normal;font-variant-ligatures:normal;font-variant-position:normal;font-variant-caps:normal;font-variant-numeric:normal;font-variant-alternates:normal;font-feature-settings:normal;text-indent:0;text-align:start;text-decoration-line:none;text-decoration-style:solid;text-decoration-color:#000;text-transform:none;text-orientation:mixed;white-space:normal;shape-padding:0;isolation:auto;mix-blend-mode:normal;solid-color:#000;solid-opacity:1" d="M150.777 253.54v4.41h1.102v-4.41zM148.571 253.54v4.41h1.103v-4.41z" color="#000" font-weight="400" font-family="sans-serif" overflow="visible" fill="#fff"/><path d="M149.123 255.191a.55.55 0 00-.551.551v2.207h1.102v-2.207a.55.55 0 00-.55-.551zm2.205 0a.55.55 0 00-.551.551v2.207h1.103v-2.207a.55.55 0 00-.552-.551zm2.205 0a.55.55 0 00-.55.551v2.207h1.102v-2.207a.55.55 0 00-.552-.551zm2.205 0a.55.55 0 00-.55.551v2.207h1.102v-2.207a.55.55 0 00-.552-.551zm2.205 0a.55.55 0 00-.55.551v2.207h1.102v-2.207a.55.55 0 00-.552-.551zm2.206 0a.55.55 0 00-.552.551v2.207h1.103v-2.207a.55.55 0 00-.551-.551z" fill="#fff" paint-order="markers fill stroke"/><rect ry="1.654" rx="1.654" y="256.847" x="146.367" height="13.23" width="16.538" style="marker:none" fill="#a3c7f3"/><path style="line-height:normal;font-variant-ligatures:normal;font-variant-position:normal;font-variant-caps:normal;font-variant-numeric:normal;font-variant-alternates:normal;font-feature-settings:normal;text-indent:0;text-align:start;text-decoration-line:none;text-decoration-style:solid;text-decoration-color:#000;text-transform:none;text-orientation:mixed;white-space:normal;shape-padding:0;isolation:auto;mix-blend-mode:normal;solid-color:#000;solid-opacity:1" d="M159.599 271.18v4.086l7.716 7.72v1.977h1.102v-2.434l-7.72-7.72v-3.63z" color="#000" font-weight="400" font-family="sans-serif" overflow="visible" fill="#fff"/><rect ry="0" rx="0" y="260.154" x="148.572" height="1.103" width="8.269" paint-order="markers fill stroke" fill="none"/><rect width="4.41" height="2.205" x="148.572" y="262.359" rx="0" ry="0" paint-order="markers fill stroke" fill="none"/><rect ry="0" rx="0" y="262.359" x="153.533" height="2.205" width="6.064" paint-order="markers fill stroke" fill="none"/><path style="line-height:normal;font-variant-ligatures:normal;font-variant-position:normal;font-variant-caps:normal;font-variant-numeric:normal;font-variant-alternates:normal;font-feature-settings:normal;text-indent:0;text-align:start;text-decoration-line:none;text-decoration-style:solid;text-decoration-color:#000;text-transform:none;text-orientation:mixed;white-space:normal;shape-padding:0;isolation:auto;mix-blend-mode:normal;solid-color:#000;solid-opacity:1" d="M170.07 270.077a1.66 1.66 0 00-1.653 1.652c0 .907.746 1.656 1.653 1.656.906 0 1.656-.749 1.656-1.656 0-.907-.75-1.652-1.656-1.652zm0 1.103c.31 0 .553.238.553.55a.547.547 0 01-.553.553.543.543 0 01-.55-.554.54.54 0 01.55-.55zM174.48 270.077a1.66 1.66 0 00-1.651 1.652c0 .907.745 1.656 1.652 1.656.907 0 1.656-.749 1.656-1.656 0-.907-.75-1.652-1.656-1.652zm0 1.103c.312 0 .554.238.554.55a.547.547 0 01-.553.553.543.543 0 01-.55-.554.54.54 0 01.55-.55zM181.098 270.077c-.907 0-1.657.745-1.657 1.652 0 .907.75 1.656 1.657 1.656.906 0 1.652-.749 1.652-1.656a1.66 1.66 0 00-1.652-1.652zm0 1.103a.54.54 0 01.549.55.543.543 0 01-.55.553.547.547 0 01-.553-.554c0-.31.243-.55.554-.55zM181.098 265.666c-.907 0-1.657.75-1.657 1.656 0 .907.75 1.652 1.657 1.652a1.66 1.66 0 001.652-1.652c0-.907-.746-1.656-1.652-1.656zm0 1.103c.31 0 .549.242.549.553a.54.54 0 01-.55.55.543.543 0 01-.553-.55c0-.31.243-.553.554-.553z" color="#000" font-weight="400" font-family="sans-serif" overflow="visible" fill="#fff" paint-order="markers fill stroke"/><path style="line-height:normal;font-variant-ligatures:normal;font-variant-position:normal;font-variant-caps:normal;font-variant-numeric:normal;font-variant-alternates:normal;font-feature-settings:normal;text-indent:0;text-align:start;text-decoration-line:none;text-decoration-style:solid;text-decoration-color:#000;text-transform:none;text-orientation:mixed;white-space:normal;shape-padding:0;isolation:auto;mix-blend-mode:normal;solid-color:#000;solid-opacity:1" d="M169.52 272.832v1.33l3.309 3.31v8.04h1.102v-8.497l-3.308-3.308v-.875zM173.931 273.241v1.33l1.425 1.429h4.867l1.424-1.428v-1.331h-1.103v.875l-.777.781h-3.956l-.777-.781v-.875z" color="#000" font-weight="400" font-family="sans-serif" overflow="visible" fill="#fff"/><path style="line-height:normal;font-variant-ligatures:normal;font-variant-position:normal;font-variant-caps:normal;font-variant-numeric:normal;font-variant-alternates:normal;font-feature-settings:normal;text-indent:0;text-align:start;text-decoration-line:none;text-decoration-style:solid;text-decoration-color:#000;text-transform:none;text-orientation:mixed;white-space:normal;shape-padding:0;isolation:auto;mix-blend-mode:normal;solid-color:#000;solid-opacity:1" d="M151.33 248.025c-.907 0-1.656.75-1.656 1.656 0 .907.75 1.652 1.656 1.652a1.66 1.66 0 001.652-1.652c0-.907-.745-1.656-1.652-1.656zm0 1.103c.311 0 .55.242.55.553a.54.54 0 01-.55.55.543.543 0 01-.553-.55c0-.31.242-.553.553-.553zM145.263 251.333c-.907 0-1.653.75-1.653 1.657a1.66 1.66 0 001.653 1.652c.906 0 1.656-.745 1.656-1.652 0-.907-.75-1.657-1.656-1.657zm0 1.103c.31 0 .553.243.553.554 0 .31-.242.55-.553.55a.54.54 0 01-.55-.55c0-.311.239-.554.55-.554z" color="#000" font-weight="400" font-family="sans-serif" overflow="visible" fill="#fff" paint-order="markers fill stroke"/><path fill="#fff" paint-order="markers fill stroke" d="M136 273h4v3h-4zM136 271h4.205v1.103H136zM139.752 263.462h4.41v1.103h-4.41zM139.752 259.052h4.41v3.308h-4.41zM139.752 256.847h4.41v1.103h-4.41z"/><path style="line-height:normal;font-variant-ligatures:normal;font-variant-position:normal;font-variant-caps:normal;font-variant-numeric:normal;font-variant-alternates:normal;font-feature-settings:normal;text-indent:0;text-align:start;text-decoration-line:none;text-decoration-style:solid;text-decoration-color:#000;text-transform:none;text-orientation:mixed;white-space:normal;shape-padding:0;isolation:auto;mix-blend-mode:normal;solid-color:#000;solid-opacity:1" d="M179.441 259.598c0 .907.75 1.657 1.657 1.657.906 0 1.652-.75 1.652-1.657a1.66 1.66 0 00-1.652-1.652c-.907 0-1.657.746-1.657 1.652zm1.103 0c0-.31.243-.549.554-.549a.54.54 0 01.549.55.543.543 0 01-.55.553.547.547 0 01-.553-.554zM179.441 252.986c0 .907.75 1.652 1.657 1.652a1.66 1.66 0 001.652-1.652c0-.907-.746-1.657-1.652-1.657-.907 0-1.657.75-1.657 1.657zm1.103 0c0-.311.243-.554.554-.554.31 0 .549.243.549.554a.54.54 0 01-.55.549.543.543 0 01-.553-.55zM175.034 252.986a1.66 1.66 0 001.652 1.652 1.66 1.66 0 001.653-1.652c0-.907-.746-1.657-1.653-1.657-.906 0-1.652.75-1.652 1.657zm1.103 0c0-.311.238-.554.55-.554.31 0 .549.243.549.554a.54.54 0 01-.55.549.54.54 0 01-.549-.55z" color="#000" font-weight="400" font-family="sans-serif" overflow="visible" fill="#fff" paint-order="markers fill stroke"/><path style="line-height:normal;font-variant-ligatures:normal;font-variant-position:normal;font-variant-caps:normal;font-variant-numeric:normal;font-variant-alternates:normal;font-feature-settings:normal;text-indent:0;text-align:start;text-decoration-line:none;text-decoration-style:solid;text-decoration-color:#000;text-transform:none;text-orientation:mixed;white-space:normal;shape-padding:0;isolation:auto;mix-blend-mode:normal;solid-color:#000;solid-opacity:1" d="M182.348 252.432v1.103h.875l.777.781v3.952l-.777.781h-.875v1.103h1.33l1.425-1.424v-4.867l-1.425-1.429z" color="#000" font-weight="400" font-family="sans-serif" overflow="visible" fill="#fff"/><rect style="marker:none" width="7.718" height="6.064" x="169.52" y="260.705" rx="1.103" ry="1.103" fill="#3584e4"/><path d="M170.623 266.218v1.654a.55.55 0 101.102 0v-1.654zm2.205 0v1.654a.55.55 0 101.102 0v-1.654zm2.205 0v1.654a.55.55 0 101.102 0v-1.654z" fill="url(#f)" paint-order="markers fill stroke"/><path d="M170.623 260.705v-1.653a.55.55 0 111.102 0v1.653zm2.205 0v-1.653a.55.55 0 111.102 0v1.653zm2.205 0v-1.653a.55.55 0 111.102 0v1.653z" fill="url(#g)" paint-order="markers fill stroke"/><rect ry="1.103" rx="1.103" y="259.052" x="169.52" height="6.615" width="7.718" style="marker:none" fill="#a3c7f3"/><rect width="4.41" height="1.103" x="170.623" y="260.154" rx="0" ry="0" paint-order="markers fill stroke" fill="none"/><rect ry="0" rx="0" y="262.359" x="170.623" height="1.103" width="2.205" paint-order="markers fill stroke" fill="none"/><g fill="#fff" paint-order="markers fill stroke"><path d="M186.058 276.692h3.308V280h-3.308z"/><path d="M186.058 276.692h3.308v2.205h-3.308z"/><path d="M186.058 276.692h1.103v2.205h-1.103zM186.058 280h1.103v-1.103h-1.103zM189.366 276.692H190v2.205h-.634z"/></g><g fill="#fff" paint-order="markers fill stroke"><path d="M186.058 273.385h2.957v2.205h-2.957z"/><path d="M186.058 273.385h.985v2.205h-.985zM186.058 276.692h.985v-1.102h-.985zM189.015 273.385H190v2.205h-.985zM189.015 276.692H190v-1.102h-.985z"/></g><path paint-order="markers fill stroke" d="M167 249v-4h2.103v4zM173 249.129v-4.13h2.033v4.13zM170 249.129v-4.13h2v4.13zM148.572 270.628v2.205a.55.55 0 101.102 0v-2.205zm2.205 0v2.205a.55.55 0 101.103 0v-2.205zm2.205 0v2.205a.55.55 0 101.103 0v-2.205zm2.205 0v2.205a.55.55 0 101.103 0v-2.205zm2.205 0v2.205a.55.55 0 101.103 0v-2.205zm2.205 0v2.205a.55.55 0 101.103 0v-2.205z" fill="#fff"/></g></svg>