<svg xmlns="http://www.w3.org/2000/svg" width="64" height="64" version="1.0"><defs><linearGradient id="a"><stop offset="0" stop-color="#d5d3cf"/><stop offset="1" stop-color="#f6f5f4"/></linearGradient><linearGradient id="b"><stop offset="0" stop-color="#d5d3cf"/><stop offset="1" stop-color="#949390"/></linearGradient><linearGradient id="c"><stop offset="0" stop-color="#9a9996"/><stop offset="1" stop-color="#77767b"/></linearGradient></defs><g color="#000" transform="translate(0 -236)"><rect ry="3.804" rx="3.804" y="240.127" x="4.127" height="55.997" width="55.79" style="marker:none" overflow="visible" fill="#fff" stroke="#98c1f1" stroke-width="4"/><path style="isolation:auto;mix-blend-mode:normal;solid-color:#000;solid-opacity:1;marker:none" overflow="visible" fill="none" d="M3.161 238.981h57.867v58.021H3.161z"/><rect style="isolation:auto;mix-blend-mode:normal;solid-color:#000;solid-opacity:1;marker:none" width="16" height="6.113" x="8" y="256" rx="0" ry="0" overflow="visible" fill="#98c1f1"/><rect ry="0" rx="0" y="258" x="26" height="2" width="12" style="isolation:auto;mix-blend-mode:normal;solid-color:#000;solid-opacity:1;marker:none" overflow="visible" fill="#98c1f1"/><rect ry="0" rx="0" y="258" x="10" height="1.759" width="12" style="isolation:auto;mix-blend-mode:normal;solid-color:#000;solid-opacity:1;marker:none" overflow="visible" fill="#fff"/><path d="M4.596 255.5h55.08" style="isolation:auto;mix-blend-mode:normal;solid-color:#000;solid-opacity:1;marker:none" overflow="visible" fill="#eeeeec" stroke="#98c1f1"/><path style="line-height:normal;font-variant-ligatures:normal;font-variant-position:normal;font-variant-caps:normal;font-variant-numeric:normal;font-variant-alternates:normal;font-feature-settings:normal;text-indent:0;text-align:start;text-decoration-line:none;text-decoration-style:solid;text-decoration-color:#000;text-transform:none;text-orientation:mixed;white-space:normal;shape-padding:0;isolation:auto;mix-blend-mode:normal;solid-color:#000;solid-opacity:1;marker:none" d="M49.35 245.956l-.025.025H48.19v1.153l-.018.018 1.78 1.764-1.78 1.763.025.025h-.008v1.16h1.152l.01.01.01-.01h.013v-.014l1.767-1.753 1.793 1.776.01-.01h1.165v-1.16h-.022l.026-.026-1.78-1.763 1.78-1.764-.01-.01h.005v-1.161H52.96l-.025-.025-1.793 1.776z" font-weight="400" font-family="sans-serif" overflow="visible" fill="#98c1f1"/><rect style="isolation:auto;mix-blend-mode:normal;solid-color:#000;solid-opacity:1;marker:none" width="12" height="2" x="40" y="258" rx="0" ry="0" overflow="visible" fill="#98c1f1"/><rect transform="scale(1 -1)" style="isolation:auto;mix-blend-mode:normal;solid-color:#000;solid-opacity:1;marker:none" width="24.916" height="23" x="8.584" y="-285.5" rx="0" ry="0" overflow="visible" fill="none" stroke="#98c1f1"/><rect ry="0" rx="0" y="265" x="11" height="2" width="12" style="isolation:auto;mix-blend-mode:normal;solid-color:#000;solid-opacity:1;marker:none" overflow="visible" fill="#98c1f1"/><rect style="isolation:auto;mix-blend-mode:normal;solid-color:#000;solid-opacity:1;marker:none" width="17" height="2" x="11" y="269" rx="0" ry="0" overflow="visible" fill="#98c1f1"/><rect ry="0" rx="0" y="273" x="11" height="2" width="12" style="isolation:auto;mix-blend-mode:normal;solid-color:#000;solid-opacity:1;marker:none" overflow="visible" fill="#98c1f1"/><rect style="isolation:auto;mix-blend-mode:normal;solid-color:#000;solid-opacity:1;marker:none" width="9" height="2" x="11" y="277" rx="0" ry="0" overflow="visible" fill="#98c1f1"/><rect ry="0" rx="0" y="281" x="11" height="2" width="15" style="isolation:auto;mix-blend-mode:normal;solid-color:#000;solid-opacity:1;marker:none" overflow="visible" fill="#98c1f1"/></g></svg>