<svg xmlns="http://www.w3.org/2000/svg" width="64" height="64" version="1.0"><defs><linearGradient id="a"><stop offset="0" stop-color="#d5d3cf"/><stop offset="1" stop-color="#f6f5f4"/></linearGradient><linearGradient id="b"><stop offset="0" stop-color="#d5d3cf"/><stop offset="1" stop-color="#949390"/></linearGradient><linearGradient id="c"><stop offset="0" stop-color="#9a9996"/><stop offset="1" stop-color="#77767b"/></linearGradient></defs><g transform="translate(0 -236)"><rect ry="3.804" rx="3.804" y="240.159" x="-72.75" height="55.841" width="56.02" style="marker:none" color="#000" overflow="visible" fill="#fff" stroke="#98c1f1" stroke-width="4"/><path style="isolation:auto;mix-blend-mode:normal;solid-color:#000;solid-opacity:1;marker:none" color="#000" overflow="visible" fill="none" d="M-72.499 239.04h57.102v57.102h-57.102z"/><path d="M-37.65 251.778c-.556 1.01-1.084 2.333-1.666 3.334-.218-.017-.431-.073-.653-.073-.77 0-1.53.113-2.246.29-.708-.887-1.462-2.083-2.175-2.971-.66.243-1.28.525-1.884.87.222 1.119.642 2.484.87 3.623a8.945 8.945 0 00-2.03 2.03c-1.14-.228-2.505-.647-3.624-.87a12.479 12.479 0 00-.87 1.885c.889.712 2.084 1.467 2.972 2.174a9.401 9.401 0 00-.29 2.247c0 .221.057.435.072.652-1.001.583-2.324 1.11-3.334 1.667.12.638.298 1.285.508 1.885 1.14-.022 2.55-.22 3.696-.218.434.91.976 1.749 1.667 2.465-.399 1.085-1.04 2.34-1.45 3.406.494.408 1.043.757 1.595 1.088.856-.743 1.799-1.79 2.682-2.537.877.4 1.829.615 2.827.725.381 1.105.705 2.523 1.087 3.624.7-.005 1.36-.033 2.03-.145.186-1.144.255-2.595.434-3.77.951-.27 1.882-.619 2.682-1.159.984.613 2.085 1.459 3.044 2.03.52-.443 1.008-.931 1.45-1.45-.571-.96-1.416-2.06-2.03-3.044.54-.8.889-1.73 1.16-2.682 1.175-.179 2.626-.248 3.769-.435.112-.668.141-1.33.145-2.03-1.1-.38-2.518-.705-3.624-1.087-.11-.997-.325-1.95-.725-2.826.748-.884 1.795-1.826 2.537-2.682-.33-.552-.68-1.1-1.087-1.595-1.068.41-2.322 1.05-3.407 1.45-.716-.692-1.556-1.233-2.464-1.667-.002-1.146.195-2.557.217-3.697-.6-.21-1.247-.388-1.884-.507zm-2.319 7.9a4.639 4.639 0 110 9.278 4.639 4.639 0 010-9.278z" style="marker:none" color="#000" overflow="visible" fill="#98c1f1"/><path d="M-55.48 269.173c-.533.11-1.029.304-1.522.508-.038 1.448.202 3.344-.362 3.841-.554.489-2.408.08-3.841-.073a8.412 8.412 0 00-.725 1.74c1.109.918 2.645 1.946 2.682 2.682.037.745-1.453 1.867-2.465 2.899.24.598.58 1.145.942 1.667 1.411-.293 3.17-.866 3.77-.435.61.44.615 2.332.797 3.769.579.174 1.188.242 1.812.29.652-1.286 1.316-3.061 2.03-3.262.732-.205 2.234 1.063 3.478 1.812.508-.351.958-.781 1.377-1.232-.588-1.327-1.672-2.996-1.377-3.696.296-.701 2.263-1.09 3.624-1.595.01-.17.073-.334.073-.507 0-.444-.08-.88-.145-1.305-1.406-.373-3.403-.56-3.77-1.232-.363-.668.562-2.462 1.016-3.841a8.553 8.553 0 00-1.523-1.088c-1.161.87-2.514 2.307-3.261 2.175-.735-.13-1.538-1.901-2.32-3.117-.093.017-.197-.02-.29 0zm1.45 4.349a3.914 3.914 0 110 7.828 3.914 3.914 0 010-7.828z" style="marker:none" color="#000" overflow="visible" fill="#98c1f1"/><g transform="matrix(.1099 0 0 .10986 -97.748 250.229)"><path d="M1084 61.125a27.16 27.16 0 00-27.063 24.9l-16 192A27.16 27.16 0 001068 307.438h96a27.16 27.16 0 0027.063-29.413l-16-192a27.16 27.16 0 00-27.063-24.9h-32z" fill="#98c1f1"/><rect ry="32" rx="32" y="-99.211" x="908" height="352" width="416" style="marker:none" fill="#cee1f8"/><path style="marker:none" d="M936.534-111.312h358.932c15.988 0 28.859 13.2 28.859 29.597v279.889h-416.65V-81.715c0-16.397 12.871-29.597 28.859-29.597z" fill="#98c1f1"/><rect style="marker:none" width="338.443" height="233.291" x="946.778" y="-72.856" rx="6.847" ry="6.847" fill="#fff"/></g><g transform="matrix(.1099 0 0 .10986 -83.502 264.229)"><path d="M1084 61.125a27.16 27.16 0 00-27.063 24.9l-16 192A27.16 27.16 0 001068 307.438h96a27.16 27.16 0 0027.063-29.413l-16-192a27.16 27.16 0 00-27.063-24.9h-32z" fill="#98c1f1"/><rect style="marker:none" width="416" height="352" x="908" y="-99.211" rx="32" ry="32" fill="#cee1f8"/><path d="M936.534-111.312h358.932c15.988 0 28.859 13.2 28.859 29.597v279.889h-416.65V-81.715c0-16.397 12.871-29.597 28.859-29.597z" style="marker:none" fill="#98c1f1"/><rect ry="6.847" rx="6.847" y="-72.856" x="946.778" height="233.291" width="338.443" style="marker:none" fill="#fff"/></g></g></svg>